# AST/ASF file generated using VICON BodyLanguage
# -----------------------------------------------
:version 1.10
:name VICON
:units
  mass 1.0
  length 0.45
  angle deg
:documentation
   .ast/.asf automatically generated from VICON data using
   VICON BodyBuilder and BodyLanguage model FoxedUp or BRILLIANT.MOD
:root
   order TX TY TZ RX RY RZ
   axis XYZ
   position 0 0 0  
   orientation 0 0 0 
:bonedata
  begin
     id 1 
     name lhipjoint
     direction 0.700308 -0.549349 0.455834 
     length 2.59063 
     axis 0 0 0  XYZ
  end
  begin
     id 2 
     name lfemur
     direction 0.34202 -0.939693 0  
     length 6.31066  
     axis 0 0 20  XYZ
    dof rx ry rz
    limits (-160.0 20.0)
           (-70.0 70.0)
           (-60.0 70.0)
  end
  begin
     id 3 
     name ltibia
     direction 0.34202 -0.939693 0   
     length 7.36093   
     axis 0 0 20   XYZ
    dof rx
    limits (-10.0 170.0)
  end
  begin
     id 4 
     name lfoot
     direction 0.0905332 -0.248738 0.96433   
     length 2.0233   
     axis -90 7.62852e-016 20   XYZ
    dof rx rz
    limits (-45.0 90.0)
           (-70.0 20.0)
  end
  begin
     id 5 
     name ltoes
     direction 1.53573e-011 -4.21855e-011 1   
     length 1.01524   
     axis -90 7.62852e-016 20   XYZ
    dof rx
    limits (-90.0 20.0)
  end
  begin
     id 6 
     name rhipjoint
     direction -0.61416 -0.607328 0.503944   
     length 2.34332  
     axis 0 0 0  XYZ 
  end
  begin
     id 7 
     name rfemur
     direction -0.34202 -0.939693 0   
     length 6.58548   
     axis 0 0 -20   XYZ
    dof rx ry rz
    limits (-160.0 20.0)
           (-70.0 70.0)
           (-70.0 60.0)
  end
  begin
     id 8 
     name rtibia
     direction -0.34202 -0.939693 0   
     length 7.20707   
     axis 0 0 -20   XYZ
    dof rx
    limits (-10.0 170.0)
 end
 begin
     id 9 
     name rfoot
     direction -0.136772 -0.375778 0.916561   
     length 1.92184  
     axis -90 -7.62852e-016 -20   XYZ
    dof rx rz
    limits (-45.0 90.0)
           (-20.0 70.0)
  end
  begin
     id 10 
     name rtoes
     direction -1.53535e-011 -4.21828e-011 1   
     length 0.951089   
     axis -90 -7.62852e-016 -20   XYZ
    dof rx
    limits (-90.0 20.0)
  end
  begin
     id 11 
     name lowerback
     direction -0.0444974 0.988086 -0.147332   
     length 1.9609   
     axis 0 0 0   XYZ
    dof rx ry rz
    limits (-20.0 45.0)
           (-30.0 30.0)
           (-30.0 30.0)
  end
  begin
     id 12 
     name upperback
     direction 0.00613146 0.999513 0.0306081   
     length 1.94944   
     axis 0 0 0   XYZ
    dof rx ry rz
    limits (-20.0 45.0)
           (-30.0 30.0)
           (-30.0 30.0)
  end
  begin
     id 13 
     name thorax
     direction 0.0254621 0.994518 0.101418   
     length 2.0119   
     axis 0 0 0   XYZ
    dof rx ry rz
    limits (-20.0 45.0)
           (-30.0 30.0)
           (-30.0 30.0)
  end
  begin
     id 14 
     name lowerneck
     direction 0.0168698 0.977854 0.208608   
     length 1.6375   
     axis 0 0 0   XYZ
    dof rx ry rz
    limits (-20.0 45.0)
           (-30.0 30.0)
           (-30.0 30.0)
  end
  begin
     id 15 
     name upperneck
     direction -0.0283988 0.989338 -0.142843   
     length 1.6851   
     axis 0 0 0   XYZ
    dof rx ry rz
    limits (-20.0 45.0)
           (-30.0 30.0)
           (-30.0 30.0)
  end
  begin
     id 16
     name head
     direction -0.0129422 0.99741 -0.0707489  
     length 1.69029  
     axis 0 0 0   XYZ
    dof rx ry rz
    limits (-20.0 45.0)
           (-30.0 30.0)
           (-30.0 30.0)
  end
  begin
     id 17 
     name lclavicle
     direction 0.820295 0.564628 -0.0911715  
     length 3.16484  
     axis 0 0 0   XYZ
    dof ry rz
    limits (-20.0 10.0)
           (0.0 20.0)
  end
  begin
     id 18 
     name lhumerus
     direction 1 -4.48969e-011 1.00186e-027   
     length 5.17853   
     axis 180 -30 -90   XYZ
    dof rx ry rz
    limits (-60.0 90.0)
           (-90.0 90.0)
           (-90.0 90.0)
  end
  begin
     id 19
     name lradius
     direction 1 -4.48966e-011 -1.52922e-027   
     length 3.40399   
     axis 180 -30 -90   XYZ
    dof rx
    limits (-10.0 170.0)
  end
  begin
     id 20
     name lwrist
     direction 1 -4.48981e-011 -3.80893e-027   
     length 1.70199   
     axis 1.1049e-015 90 90   XYZ
    dof ry
    limits (-180.0 0.0)
 end
  begin
     id 21 
     name lhand
     direction 1 -4.48957e-011 -7.61786e-027   
     length 0.708964   
     axis 4.86085e-015 90 90   XYZ
    dof rx rz
    limits (-90.0 90.0)
           (-45.0 45.0)
  end
  begin
     id 22 
     name lfingers
     direction 1 -4.48929e-011 -1.52357e-026   
     length 0.571585   
     axis 9.7217e-015 90 90   XYZ
    dof rx
    limits (0.0 90.0)
  end
  begin
     id 23
     name lthumb
     direction 0.707107 -6.34905e-011 0.707107   
     length 0.820685   
     axis -90 45 2.85299e-015   XYZ
    dof rx rz
    limits (-45.0 45.0)
           (-45.0 45.0)
  end
  begin
     id 24 
     name rclavicle
     direction -0.858602 0.463947 -0.218075   
     length 3.35137  
     axis 0 0 0   XYZ 
    dof ry rz
    limits (-10.0 20.0)
           (-20.0 0.0)
  end
  begin
     id 25 
     name rhumerus
     direction -1 -4.48969e-011 -1.98511e-027  
     length 5.42351   
     axis 180 30 90   XYZ
    dof rx ry rz
    limits (-90.0 60.0)
           (-90.0 90.0)
           (-90.0 90.0)
  end
  begin
     id 26 
     name rradius
     direction -1 -4.48961e-011 -2.82624e-027   
     length 3.42066   
     axis 180 30 90   XYZ
    dof rx
    limits (-10.0 170.0)
  end
  begin
     id 27 
     name rwrist
     direction -1 -4.48966e-011 -3.80893e-027   
     length 1.71033   
     axis 1.1049e-015 -90 -90   XYZ
    dof ry
    limits (-180.0 0.0)
  end
  begin
     id 28
     name rhand
     direction -1 -4.48964e-011 -7.61786e-027   
     length 0.743608   
     axis 4.86085e-015 -90 -90   XYZ
    dof rx rz
    limits (-90.0 90.0)
           (-45.0 45.0)
  end
  begin
     id 29
     name rfingers
     direction -1 -4.48961e-011 -1.52357e-026   
     length 0.599516   
     axis 9.7217e-015 -90 -90   XYZ
    dof rx
    limits (0.0 90.0)
  end
  begin
     id 30
     name rthumb
     direction -0.707107 -6.34913e-011 0.707107   
     length 0.860789   
     axis -90 -45 -2.85299e-015   XYZ
    dof rx rz
    limits (-45.0 45.0)
           (-45.0 45.0)
  end
:hierarchy
  begin
    root lhipjoint rhipjoint lowerback
    lhipjoint lfemur
    lfemur ltibia
    ltibia lfoot
    lfoot ltoes
    rhipjoint rfemur
    rfemur rtibia
    rtibia rfoot
    rfoot rtoes
    lowerback upperback
    upperback thorax
    thorax lowerneck lclavicle rclavicle
    lowerneck upperneck
    upperneck head
    lclavicle lhumerus
    lhumerus lradius
    lradius lwrist
    lwrist lhand lthumb
    lhand lfingers
    rclavicle rhumerus
    rhumerus rradius
    rradius rwrist
    rwrist rhand rthumb
    rhand rfingers
  end

#!OML:ASF E:\mmandel\Project 1\Capture day 1\Session 2\Subject.ASF
:FULLY-SPECIFIED
:DEGREES
276
root -3.52651 2.27449 1.86254 142.531 38.6369 -114.897
lowerback 15.351 -1.28136 -12.1857
upperback 3.74305 -3.42676 0.665914
thorax -3.78555 -1.57808 8.22754
lowerneck -9.51342 -4.99827 -3.6094
upperneck 40.5071 2.4986 -16.3511
head 16.6021 -0.666059 -6.07333
rclavicle -3.18055e-015 1.37559e-013
rhumerus 45.2265 78.6211 -64.7025
rradius 59.973
rwrist -19.7146
rhand -3.43339 35.66
rfingers 7.12502
rthumb 22.298 6.92656
lclavicle -3.18055e-015 1.37559e-013
lhumerus 27.7426 9.96807 22.2175
lradius 16.192
lwrist -31.2375
lhand -8.92737 -14.857
lfingers 7.12502
lthumb 17.0164 14.4177
rfemur -40.6923 -7.68905 18.7681
rtibia 110.004
rfoot 3.05754 -4.4001
rtoes -7.2243
lfemur -30.4118 23.3048 -14.1148
ltibia 48.6793
lfoot 8.62387 2.25578
ltoes 13.1213
277
root -3.528 2.27086 1.89468 142.895 39.7105 -114.169
lowerback 15.4046 -1.33463 -11.429
upperback 3.84218 -3.35846 0.964365
thorax -3.7538 -1.55261 8.11176
lowerneck -9.60168 -5.00037 -3.7867
upperneck 40.611 2.37556 -15.9673
head 16.6564 -0.708122 -5.8926
rclavicle -1.27222e-014 6.67916e-014
rhumerus 45.0738 78.8341 -64.458
rradius 60.1489
rwrist -19.6443
rhand -3.46468 35.3741
rfingers 7.12502
rthumb 22.2679 6.63706
lclavicle -1.27222e-014 6.67916e-014
lhumerus 27.4177 10.1775 21.8466
lradius 16.1615
lwrist -30.8433
lhand -8.45239 -15.1097
lfingers 7.12502
lthumb 17.4735 14.125
rfemur -39.8037 -7.57814 19.8562
rtibia 109.59
rfoot 2.61261 -4.95851
rtoes -6.23311
lfemur -30.0455 23.3212 -12.7068
ltibia 48.3659
lfoot 9.01552 2.30251
ltoes 11.6085
278
root -3.5182 2.2614 1.91735 142.402 39.6407 -115.673
lowerback 14.9593 -1.25321 -12.6912
upperback 3.72035 -3.42076 0.706247
thorax -3.5613 -1.5915 8.53577
lowerneck -9.73398 -4.96304 -3.91429
upperneck 40.7857 2.3332 -15.5843
head 16.7718 -0.703699 -5.71881
rclavicle -8.90555e-014 -4.92986e-014
rhumerus 44.5646 79.0525 -64.6715
rradius 60.276
rwrist -19.5045
rhand -3.46522 35.0547
rfingers 7.12502
rthumb 22.2674 6.31754
lclavicle -8.90555e-014 -4.92986e-014
lhumerus 27.0016 10.5146 21.565
lradius 16.0706
lwrist -30.5889
lhand -8.04061 -15.6245
lfingers 7.12502
lthumb 17.8698 13.5745
rfemur -40.0388 -7.74433 18.4532
rtibia 109.743
rfoot 2.47396 -4.83641
rtoes -5.59437
lfemur -30.4044 23.7157 -13.8057
ltibia 48.1351
lfoot 9.32955 2.50079
ltoes 12.86
279
root -3.51927 2.2516 1.94187 141.803 39.7388 -117.041
lowerback 14.516 -1.15564 -13.6465
upperback 3.7411 -3.3795 0.458199
thorax -3.25742 -1.59077 8.77254
lowerneck -9.88037 -4.96109 -4.12627
upperneck 40.9094 2.19387 -15.1123
head 16.8503 -0.750386 -5.49786
rclavicle 1.145e-013 -1.90038e-013
rhumerus 45.1837 79.0842 -63.7244
rradius 60.2945
rwrist -19.6487
rhand -3.21595 34.7892
rfingers 7.12502
rthumb 22.5067 6.08087
lclavicle 1.145e-013 -1.90038e-013
lhumerus 26.4475 10.3513 20.8518
lradius 16.2158
lwrist -29.5589
lhand -7.82463 -15.7397
lfingers 7.12502
lthumb 18.0776 13.4402
rfemur -40.0698 -7.8245 17.2373
rtibia 109.804
rfoot 2.57323 -4.7104
rtoes -5.96822
lfemur -30.4023 23.7415 -14.6207
ltibia 47.9024
lfoot 9.48296 2.87302
ltoes 11.6853
280
root -3.51495 2.25282 1.96676 141.983 40.7203 -116.683
lowerback 14.3077 -1.0051 -12.7608
upperback 3.93183 -2.99269 0.33402
thorax -3.09522 -1.41239 8.06011
lowerneck -10.0364 -5.11286 -3.8246
upperneck 41.1929 1.55444 -14.4954
head 16.9359 -0.925431 -5.39717
rclavicle -8.26944e-014 7.15625e-014
rhumerus 43.3698 78.2982 -65.3897
rradius 60.2846
rwrist -19.8492
rhand -2.59463 34.4992
rfingers 7.12502
rthumb 23.103 5.86429
lclavicle -8.26944e-014 7.15625e-014
lhumerus 26.6678 9.83953 20.1066
lradius 16.5918
lwrist -28.5861
lhand -7.644 -15.532
lfingers 7.12502
lthumb 18.2514 13.6318
rfemur -39.4586 -7.62992 17.994
rtibia 109.553
rfoot 2.3177 -4.95171
rtoes -6.08049
lfemur -30.3128 23.9929 -13.4936
ltibia 48.047
lfoot 9.58706 3.00348
ltoes 11.6027
281
root -3.50237 2.25022 1.9919 142.736 42.0597 -115.362
lowerback 14.3285 -1.06421 -11.3616
upperback 4.09034 -2.84393 0.586186
thorax -3.04022 -1.34743 7.51459
lowerneck -10.2163 -5.14464 -3.75232
upperneck 41.4707 1.24325 -13.9268
head 17.0824 -0.985638 -5.2264
rclavicle -1.145e-013 5.32743e-014
rhumerus 41.8836 78.0664 -66.7139
rradius 60.344
rwrist -19.865
rhand -2.14703 34.3579
rfingers 7.12502
rthumb 23.5324 5.77748
lclavicle -1.145e-013 5.32743e-014
lhumerus 26.5596 10.2053 19.8776
lradius 16.7954
lwrist -28.7088
lhand -7.69271 -15.5092
lfingers 7.12502
lthumb 18.2045 13.6589
rfemur -38.6948 -7.43493 19.6719
rtibia 109.141
rfoot 1.92846 -5.40215
rtoes -5.54774
lfemur -30.33 24.233 -11.4811
ltibia 48.3326
lfoot 9.7838 3.08771
ltoes 12.3888
282
root -3.48341 2.24663 2.01838 143.175 43.3656 -114.05
lowerback 14.7314 -1.1429 -10.203
upperback 4.31355 -2.78265 0.962344
thorax -3.07838 -1.31728 7.26655
lowerneck -10.3699 -5.13363 -3.84773
upperneck 41.6725 1.12742 -13.5088
head 17.2171 -1.00062 -5.05656
rclavicle -2.22639e-014 -7.07673e-014
rhumerus 41.9342 78.2345 -66.4312
rradius 60.359
rwrist -20.032
rhand -2.0491 34.2459
rfingers 7.12502
rthumb 23.6263 5.6775
lclavicle -2.22639e-014 -7.07673e-014
lhumerus 26.2374 10.6833 19.6338
lradius 16.6845
lwrist -28.989
lhand -7.91654 -15.719
lfingers 7.12502
lthumb 17.9891 13.4691
rfemur -37.6356 -7.32031 21.231
rtibia 108.761
rfoot 1.63639 -5.9329
rtoes -4.62491
lfemur -30.0285 24.5347 -9.35325
ltibia 48.7452
lfoot 9.92549 2.97881
ltoes 12.7894
283
root -3.48127 2.2483 2.05222 143.23 44.5117 -113.05
lowerback 15.2214 -1.15145 -9.26418
upperback 4.62788 -2.64902 1.2321
thorax -3.06953 -1.24926 7.01558
lowerneck -10.5064 -5.17845 -3.93702
upperneck 41.8612 0.932177 -13.1487
head 17.3346 -1.05856 -4.92667
rclavicle -5.08889e-014 1.27222e-013
rhumerus 42.6217 78.2557 -65.5247
rradius 60.3141
rwrist -20.3511
rhand -1.99194 34.0106
rfingers 7.12502
rthumb 23.6811 5.44927
lclavicle -5.08889e-014 1.27222e-013
lhumerus 26.0102 10.9141 19.3095
lradius 16.6116
lwrist -29.1037
lhand -7.89753 -15.6492
lfingers 7.12502
lthumb 18.0074 13.5372
rfemur -36.2267 -7.24843 22.4148
rtibia 108.258
rfoot 1.36988 -6.37367
rtoes -3.64517
lfemur -29.2345 24.5569 -7.46026
ltibia 48.9856
lfoot 9.92644 3.01906
ltoes 11.8629
284
root -3.48051 2.24476 2.07554 143.292 45.092 -113.157
lowerback 14.9242 -1.13789 -9.14839
upperback 4.71852 -2.57898 1.22384
thorax -2.83247 -1.22907 6.91244
lowerneck -10.6485 -5.25162 -4.18876
upperneck 42.1165 0.664384 -12.6023
head 17.4902 -1.14878 -4.69773
rclavicle 6.99722e-014 -1.04163e-013
rhumerus 42.2217 78.1608 -65.708
rradius 60.3091
rwrist -20.4506
rhand -1.76383 33.7115
rfingers 7.12502
rthumb 23.8999 5.17872
lclavicle 6.99722e-014 -1.04163e-013
lhumerus 25.7164 11.1158 19.0232
lradius 16.7687
lwrist -29.1881
lhand -7.6413 -15.3993
lfingers 7.12502
lthumb 18.254 13.7642
rfemur -35.8342 -7.29488 22.4281
rtibia 108.085
rfoot 1.15776 -6.40057
rtoes -2.92815
lfemur -29.2981 24.731 -7.05112
ltibia 49.1177
lfoot 9.9194 3.18719
ltoes 11.4174
285
root -3.48009 2.23896 2.10051 143.872 45.8879 -112.796
lowerback 14.4775 -1.18148 -8.58573
upperback 4.75501 -2.51264 1.28278
thorax -2.59396 -1.20852 6.6227
lowerneck -10.7596 -5.29061 -4.43615
upperneck 42.3474 0.370274 -11.8979
head 17.6212 -1.22551 -4.39321
rclavicle -5.725e-014 2.38542e-014
rhumerus 41.363 78.1069 -66.4482
rradius 60.1972
rwrist -20.4939
rhand -1.67933 33.5204
rfingers 7.12502
rthumb 23.9809 4.99826
lclavicle -5.725e-014 2.38542e-014
lhumerus 25.5463 11.6179 18.9443
lradius 16.8886
lwrist -29.5711
lhand -7.30009 -15.2863
lfingers 7.12502
lthumb 18.5822 13.8461
rfemur -35.694 -7.24641 22.9501
rtibia 107.955
rfoot 0.897898 -6.52086
rtoes -2.74858
lfemur -29.5798 24.7325 -6.25916
ltibia 49.1121
lfoot 10.0314 3.54773
ltoes 11.4166
286
root -3.47731 2.2287 2.12855 144.064 46.5268 -112.86
lowerback 14.2405 -1.16077 -8.43333
upperback 4.76923 -2.44333 1.2895
thorax -2.47139 -1.18036 6.52159
lowerneck -10.7598 -5.29173 -4.56333
upperneck 42.4187 0.163926 -11.3944
head 17.639 -1.26837 -4.17075
rclavicle -5.08889e-014 -3.89618e-014
rhumerus 41.1595 78.1536 -66.4625
rradius 60.0739
rwrist -20.806
rhand -1.57102 33.5537
rfingers 7.12502
rthumb 24.0848 5.04522
lclavicle -5.08889e-014 -3.89618e-014
lhumerus 25.5377 12.2246 19.0251
lradius 16.6526
lwrist -30.0465
lhand -7.30578 -15.2647
lfingers 7.12502
lthumb 18.5767 13.8683
rfemur -35.6356 -7.23277 23.0708
rtibia 107.999
rfoot 0.522967 -6.64119
rtoes -3.02345
lfemur -29.6775 25.0271 -5.81447
ltibia 48.9931
lfoot 10.2452 3.67714
ltoes 11.3357
287
root -3.47928 2.22227 2.15931 143.677 46.8542 -113.562
lowerback 14.0982 -1.07136 -8.85521
upperback 4.82655 -2.36979 1.18587
thorax -2.32838 -1.1542 6.6325
lowerneck -10.873 -5.32621 -4.54164
upperneck 42.5353 0.0469187 -11.262
head 17.7248 -1.30083 -4.14747
rclavicle 1.43125e-013 -3.73715e-014
rhumerus 41.25 78.1197 -66.064
rradius 60.058
rwrist -21.2178
rhand -1.1554 33.6325
rfingers 7.12502
rthumb 24.4832 5.17734
lclavicle 1.43125e-013 -3.73715e-014
lhumerus 25.4109 11.9808 18.4883
lradius 16.3711
lwrist -29.3065
lhand -7.73994 -15.2571
lfingers 7.12502
lthumb 18.1591 13.9152
rfemur -35.4676 -7.38512 22.525
rtibia 108.066
rfoot 0.215531 -6.65552
rtoes -3.33447
lfemur -29.4682 24.8849 -5.91321
ltibia 48.719
lfoot 10.4813 4.20127
ltoes 10.9572
288
root -3.47428 2.21738 2.18486 143.26 47.2051 -114.01
lowerback 14.1977 -1.02349 -9.11514
upperback 4.89452 -2.3458 1.12493
thorax -2.30236 -1.14513 6.71423
lowerneck -11.0367 -5.36035 -4.43632
upperneck 42.8106 0.0185945 -11.2858
head 17.9279 -1.29494 -4.21492
rclavicle 1.90833e-014 6.44062e-014
rhumerus 40.521 78.1936 -66.4952
rradius 60.0658
rwrist -21.2937
rhand -1.09914 33.6137
rfingers 7.12502
rthumb 24.5372 5.1659
lclavicle 1.90833e-014 6.44062e-014
lhumerus 25.3519 11.442 17.7441
lradius 16.0097
lwrist -28.4272
lhand -8.08556 -15.1587
lfingers 7.12502
lthumb 17.8265 14.0442
rfemur -34.9995 -7.6224 22.1069
rtibia 108.082
rfoot 0.126986 -6.61353
rtoes -3.79743
lfemur -29.0379 24.8645 -5.77356
ltibia 48.3917
lfoot 10.7952 4.44699
ltoes 10.3931
289
root -3.47167 2.2129 2.21207 143.202 47.7802 -114.084
lowerback 14.205 -0.995707 -9.09469
upperback 4.96202 -2.29711 1.18568
thorax -2.2408 -1.12463 6.75933
lowerneck -11.1049 -5.3649 -4.53152
upperneck 42.944 -0.0556208 -11.0401
head 18.0208 -1.30756 -4.10745
rclavicle 1.08139e-013 -2.26615e-013
rhumerus 39.4344 78.2657 -67.2967
rradius 60.0331
rwrist -21.1471
rhand -1.30659 33.5958
rfingers 7.12502
rthumb 24.3383 5.12111
lclavicle 1.08139e-013 -2.26615e-013
lhumerus 25.1623 11.5204 17.4418
lradius 15.8493
lwrist -28.484
lhand -8.00925 -15.204
lfingers 7.12502
lthumb 17.8999 13.9922
rfemur -34.615 -7.72485 22.1262
rtibia 108.045
rfoot 0.131879 -6.76259
rtoes -3.6658
lfemur -28.7192 24.9106 -5.27568
ltibia 48.0505
lfoot 11.1684 4.63064
ltoes 10.2277
